<?xml version="1.0" encoding="UTF-8" standalone="no"?>
<!-- Created with Inkscape (http://www.inkscape.org/) -->

<svg
   xmlns:dc="http://purl.org/dc/elements/1.1/"
   xmlns:cc="http://creativecommons.org/ns#"
   xmlns:rdf="http://www.w3.org/1999/02/22-rdf-syntax-ns#"
   xmlns:svg="http://www.w3.org/2000/svg"
   xmlns="http://www.w3.org/2000/svg"
   xmlns:sodipodi="http://sodipodi.sourceforge.net/DTD/sodipodi-0.dtd"
   xmlns:inkscape="http://www.inkscape.org/namespaces/inkscape"
   width="178.72806mm"
   height="168.46574mm"
   viewBox="0 0 633.28839 596.92586"
   id="svg132511"
   version="1.1"
   inkscape:version="0.91 r13725"
   sodipodi:docname="qcdlogo.svg">
  <defs
     id="defs132513" />
  <sodipodi:namedview
     id="base"
     pagecolor="#ffffff"
     bordercolor="#666666"
     borderopacity="1.0"
     inkscape:pageopacity="0.0"
     inkscape:pageshadow="2"
     inkscape:zoom="1.4"
     inkscape:cx="266.43816"
     inkscape:cy="341.88565"
     inkscape:document-units="px"
     inkscape:current-layer="layer1-2"
     showgrid="false"
     fit-margin-top="0"
     fit-margin-left="0"
     fit-margin-right="0"
     fit-margin-bottom="0"
     inkscape:window-width="2560"
     inkscape:window-height="1475"
     inkscape:window-x="0"
     inkscape:window-y="0"
     inkscape:window-maximized="1" />
  <metadata
     id="metadata132516">
    <rdf:RDF>
      <cc:Work
         rdf:about="">
        <dc:format>image/svg+xml</dc:format>
        <dc:type
           rdf:resource="http://purl.org/dc/dcmitype/StillImage" />
        <dc:title></dc:title>
      </cc:Work>
    </rdf:RDF>
  </metadata>
  <g
     inkscape:label="Layer 1"
     inkscape:groupmode="layer"
     id="layer1"
     transform="translate(-56.212946,-183.36575)">
    <g
       id="layer1-3"
       inkscape:label="Layer 1"
       transform="matrix(0.95679555,0,0,0.95679555,10.449499,167.70018)">
      <g
         id="layer1-2"
         inkscape:label="Layer 1"
         transform="matrix(0.93746336,0,0,0.93746336,34.670577,4.6252149)">
        <path
           id="path3297"
           d="m 327.04123,650.53445 c -9.96575,-1.81529 -18.0239,-6.0179 -23.53962,-12.27672 -3.72572,-4.22768 -7.15967,-12.68912 -8.23468,-20.29076 -2.42944,-17.17911 3.78058,-33.02014 16.02472,-40.87719 11.73835,-7.53247 30.08297,-8.95851 44.73271,-3.47735 11.38406,4.25933 19.91714,16.45323 21.79516,31.14563 2.7889,21.8185 -7.25268,38.62833 -26.57492,44.48706 -5.17045,1.56774 -18.71409,2.28922 -24.20337,1.28933 z"
           style="fill:#5972b2;fill-opacity:1"
           inkscape:connector-curvature="0" />
        <path
           id="path3285"
           d="m 422.36482,525.10313 c -18.49198,-9.10836 -44.96336,-22.19842 -58.82529,-29.08901 l -25.20352,-12.52835 -35.175,17.59179 -35.17502,17.5918 -120.55972,-60.22689 C 81.118413,425.31768 24.477623,396.99739 21.557833,395.50849 l -5.3087,-2.70711 0.21852,-123.08996 c 0.12018,-67.69947 0.21972,-125.17306 0.2212,-127.71908 l 0.003,-4.62912 125.261797,-62.39323 c 68.89401,-34.31629 125.7303,-62.41364 126.30286,-62.43856 0.57257,-0.0249 57.47917,28.14188 126.45912,62.59289 l 125.41808,62.6382 0,128.07799 c 0,111.93997 -0.16345,128.078 -1.29716,128.078 -19.38134,8.82735 -40.08621,19.37922 -57.19738,27.9201 l -46.9858,23.49618 -18.26371,-8.56179 c -10.04505,-4.70898 -18.55078,-8.82064 -18.90162,-9.137 -0.35084,-0.31636 24.03759,-12.90781 54.19651,-27.981 l 54.83441,-27.40579 -0.22471,-107.06278 -0.22471,-107.06277 -108.386,-54.12619 c -59.61229,-29.76941 -108.88433,-54.15626 -109.4934,-54.193 -0.60907,-0.0368 -50.05028,24.40527 -109.86935,54.31559 l -108.761947,54.3824 -0.0791,105.65426 c -0.0435,58.10984 0.18805,106.35053 0.51461,107.20154 0.63101,1.64439 215.630457,109.26905 218.284397,109.26905 0.8088,0 16.24259,-7.38813 34.29731,-16.41806 27.54418,-13.77601 33.24346,-16.32654 35.41613,-15.84934 1.42414,0.31279 14.02299,6.15042 27.99745,12.97252 13.97445,6.82209 36.95451,17.9907 51.06681,24.81913 14.1123,6.82843 33.02455,15.99636 42.02723,20.37319 9.00267,4.37682 20.25252,9.81831 24.99966,12.0922 l 8.63117,4.13434 -17.1329,9.46304 c -9.4231,5.20468 -17.6868,9.46 -18.36379,9.45626 -0.67699,-0.004 -16.36069,-7.45909 -34.85266,-16.56746 z"
           style="fill:#3f87c6;fill-opacity:1"
           inkscape:connector-curvature="0"
           sodipodi:nodetypes="cscccsscsccscscscccssscccscscssssssssscsccc" />
        <path
           style="fill:#38bc6f;fill-opacity:1"
           d="M 238.08398 69.083984 L 238.08398 226.61133 L 238.08398 384.13672 L 273.20312 366.58984 C 292.51776 356.93902 326.35575 340.03367 348.39844 329.02148 L 388.47461 309 L 388.67773 226.74219 L 388.87891 144.48438 L 313.48242 106.7832 L 238.08398 69.083984 z M 269.03906 118.28906 C 269.47708 118.28906 289.83354 128.28926 314.27539 140.51172 L 358.71484 162.73438 L 358.80273 224.23828 C 358.85126 258.06541 358.89062 286.4571 358.89062 287.33008 C 358.89062 288.20305 358.85126 289.27326 358.80273 289.70898 C 358.75424 290.14471 338.71724 300.50215 314.27539 312.72461 C 289.83355 324.94706 269.47708 334.94727 269.03906 334.94727 C 268.51015 334.94727 268.24219 298.5597 268.24219 226.61719 C 268.24219 154.67467 268.51015 118.28906 269.03906 118.28906 z "
           transform="matrix(1.114876,0,0,1.114876,14.037173,12.531412)"
           id="path3279" />
        <path
           id="path3275"
           d="m 171.30746,398.24001 -82.948457,-41.51589 0.006,-91.33718 0.006,-91.33718 82.942887,-41.39933 c 45.61858,-22.76962 83.2415,-41.38326 83.60647,-41.36363 0.36498,0.0196 0.66359,7.94999 0.66359,17.62303 0,13.00049 -0.28844,17.82183 -1.10598,18.48644 -0.60829,0.4945 -30.67116,15.6757 -66.80639,33.736 l -65.70042,32.83688 0.22643,71.35737 0.22643,71.35737 66.35877,33.26243 66.35877,33.26241 0.23915,18.35926 c 0.13153,10.0976 -0.0675,18.32072 -0.44239,18.27359 -0.37485,-0.0472 -38.00835,-18.76783 -83.63001,-41.60157 z"
           style="fill:#f37073;fill-opacity:1"
           inkscape:connector-curvature="0" />
        <path
           style="fill:#5972b2;fill-opacity:1"
           d="M 523.78711 7.7988281 L 523.78711 67.490234 L 523.78711 127.17969 L 559.30078 126.79883 C 587.57151 126.4959 595.89525 126.1671 600.11133 125.18555 C 616.35153 121.40464 625.88603 111.31021 630.98633 92.496094 C 633.44257 83.435597 634.09921 58.80346 632.14258 49.146484 C 627.42806 25.877295 617.20031 14.741194 596.00586 9.8027344 C 592.00387 8.870245 583.32932 8.5101054 557.31641 8.1992188 L 523.78711 7.7988281 z M 549.18164 29.404297 L 565.65039 29.414062 C 586.80969 29.426171 591.9707 30.660967 597.58789 37.058594 C 609.71446 50.869987 609.00393 87.493331 596.37891 99.404297 C 594.71041 100.97843 591.53324 102.91057 589.31836 103.69727 C 586.00404 104.87449 582.09575 105.17669 567.23633 105.41211 L 549.18164 105.69922 L 549.18164 67.550781 L 549.18164 29.404297 z "
           transform="matrix(1.114876,0,0,1.114876,14.037173,12.531412)"
           id="path3271" />
        <g
           id="g113466">
          <path
             inkscape:connector-curvature="0"
             style="fill:#5972b2;fill-opacity:1"
             d="m 471.47031,670.01884 0,-8.01088 22.60592,0 c 27.52128,0 28.65467,-0.35376 28.69945,-8.95759 l 0.012,-2.3217 -15.44992,-0.38265 -15.44993,-0.38263 -6.00607,-3.05393 c -4.61329,-2.34572 -6.66739,-4.04177 -8.8578,-7.31378 -4.76423,-7.11675 -4.94637,-8.47532 -5.32833,-39.74377 l -0.35397,-28.97667 11.12408,0 11.12408,0 0.0212,25.87992 c 0.0116,14.23396 0.38891,27.47254 0.83846,29.41906 0.45176,1.95611 1.84953,4.42958 3.12497,5.5299 2.13647,1.84312 3.15703,1.99076 13.76047,1.99076 l 11.45286,0 0,-31.40982 0,-31.40982 11.05979,0 11.0598,0 0,40.57928 c 0,23.5536 -0.37455,42.57889 -0.8927,45.34517 -1.80091,9.61466 -7.60125,16.81064 -15.71934,19.5016 -2.22398,0.73721 -11.99855,1.19582 -30.0603,1.41043 l -26.7647,0.31801 0,-8.01089 z"
             id="path3301" />
          <path
             inkscape:connector-curvature="0"
             style="fill:#5972b2;fill-opacity:1"
             d="m 647.11115,653.04231 c -18.43869,-1.77029 -29.43762,-7.80417 -37.45642,-20.54813 -8.06046,-12.8102 -11.0467,-25.01696 -11.06994,-45.25044 -0.0132,-11.48272 0.33808,-15.59319 1.85983,-21.76288 4.18581,-16.97063 12.63726,-29.84278 24.7148,-37.64234 8.30397,-5.36263 11.62767,-5.83931 43.83883,-6.28738 l 28.97661,-0.40307 0,11.96412 0,11.96412 -25.87987,0.30778 c -28.24186,0.33587 -29.96234,0.61969 -35.47027,5.85165 -5.13899,4.88149 -8.51077,13.94451 -8.54103,22.95744 l -0.007,1.99076 34.94895,0 34.94892,0 0,11.94458 0,11.94458 -35.06291,0 -35.06293,0 0.59676,4.49869 c 1.54996,11.68414 6.93922,19.37738 16.11933,23.01054 4.889,1.93491 6.58334,2.07297 29.29943,2.38743 l 24.11032,0.33378 0,11.87068 0,11.87069 -21.45597,-0.11958 c -11.8008,-0.0657 -25.03429,-0.46313 -29.40776,-0.88302 z"
             id="path3299" />
          <path
             inkscape:connector-curvature="0"
             style="fill:#ffffff"
             d="m 344.1364,633.68874 c 4.53628,-1.26012 9.42218,-6.50995 10.9984,-11.81763 2.88098,-9.70132 1.01768,-24.13898 -3.78359,-29.31692 -4.74404,-5.11624 -14.20529,-7.13962 -22.54925,-4.82237 -7.60712,2.11262 -12.16879,10.74556 -12.16879,23.02937 0,11.73092 3.43714,18.61187 11.0598,22.14105 3.92404,1.81677 11.4404,2.17628 16.44343,0.7865 z"
             id="path3295" />
          <path
             inkscape:connector-curvature="0"
             style="fill:#5972b2;fill-opacity:1"
             d="m 48.543733,605.82419 0,-44.68157 -17.25328,0 -17.25328,0 0,-9.73262 0,-9.73262 46.89353,0 46.893537,0 0,9.73262 0,9.73262 -18.138067,0 -18.13806,0 0,44.68157 0,44.68158 -11.50219,0 -11.50219,0 0,-44.68158 z"
             id="path3293" />
          <path
             inkscape:connector-curvature="0"
             style="fill:#5972b2;fill-opacity:1"
             d="m 119.32642,596.09157 0,-54.41419 11.0598,0 11.05979,0 0,14.59893 0,14.59893 12.60817,0.0215 c 22.27952,0.038 28.68904,1.4139 34.7309,7.45576 6.61014,6.61014 6.9072,8.32917 7.30818,42.29185 l 0.35256,29.86145 -11.13141,0 -11.1314,0 -0.013,-27.2071 c -0.0141,-29.25222 -0.10585,-29.90408 -4.69342,-33.31529 -2.21108,-1.64412 -3.94522,-1.88741 -15.26252,-2.14133 l -12.76805,-0.2865 0,31.4751 0,31.47509 -11.05979,0 -11.0598,0 0,-54.4142 z"
             id="path3291" />
          <path
             inkscape:connector-curvature="0"
             style="fill:#5972b2;fill-opacity:1"
             d="m 242.1071,649.54703 c -11.27308,-1.65177 -21.53956,-9.29189 -26.36543,-19.62066 -8.48651,-18.16359 -3.39932,-42.8915 10.8393,-52.68793 7.19622,-4.95114 11.40011,-5.69904 34.53203,-6.14349 l 21.01361,-0.40375 0,8.49747 0,8.49746 -17.67776,0 c -21.08749,0 -23.6563,0.6347 -26.52121,6.55281 -0.99538,2.05618 -1.80978,4.60818 -1.80978,5.67111 l 0,1.93262 23.00438,0 23.00437,0 0,8.40544 0,8.40545 -23.00437,0 c -22.33614,0 -23.00438,0.0509 -23.00438,1.75166 0,3.54739 2.73345,8.46062 5.9169,10.63531 3.15887,2.1579 3.68832,2.21893 21.66492,2.49721 l 18.42693,0.28527 0,8.34137 0,8.34139 -17.47448,-0.10789 c -9.61096,-0.0594 -19.75622,-0.44222 -22.54503,-0.85085 z"
             id="path3289" />
          <path
             inkscape:connector-curvature="0"
             style="fill:#5972b2;fill-opacity:1"
             d="m 395.37892,610.66058 0,-39.84518 19.68643,0.11031 c 21.22819,0.11894 28.21681,0.83918 33.26502,3.42826 7.45017,3.82098 9.73582,8.7665 10.4814,22.67887 l 0.54227,10.11853 -10.31037,0 -10.31036,0 0,-5.33712 c 0,-10.81829 -3.51712,-14.12812 -15.0129,-14.12812 l -6.2219,0 0,31.40982 0,31.40982 -11.0598,0 -11.05979,0 0,-39.84519 z"
             id="path3287" />
          <path
             inkscape:connector-curvature="0"
             style="fill:#5972b2;fill-opacity:1"
             d="m 597.99437,418.69245 0,-66.35878 13.71414,0 13.71415,0 0,66.35878 0,66.35877 -13.71415,0 -13.71414,0 0,-66.35877 z"
             id="path3283" />
          <path
             inkscape:connector-curvature="0"
             style="fill:#5972b2;fill-opacity:1"
             d="m 649.81701,451.92088 c -12.44363,-18.2217 -22.62479,-33.55094 -22.62479,-34.06501 0,-0.51406 5.23945,-8.00149 11.6432,-16.63873 6.40375,-8.63724 13.69652,-18.49115 16.20615,-21.89757 2.50962,-3.40641 8.04345,-10.87177 12.29739,-16.58969 l 7.73445,-10.39621 17.31015,0 c 13.7047,0 17.1359,0.23036 16.4733,1.10598 -0.4603,0.60829 -5.8107,7.27735 -11.8897,14.82013 -35.42821,43.95902 -39.76117,49.57637 -39.07683,50.66005 0.39145,0.61986 11.28759,15.25531 24.21365,32.52322 12.92608,17.26792 23.79918,31.89391 24.16258,32.50219 0.5194,0.86955 -3.0254,1.10598 -16.5821,1.10598 l -17.24267,0 -22.62478,-33.13034 z"
             id="path3281" />
          <path
             inkscape:connector-curvature="0"
             style="fill:#5972b2;fill-opacity:1"
             d="m 636.36443,324.0345 c -11.90579,-1.68681 -20.53893,-5.42184 -27.56283,-11.92473 -5.92618,-5.4866 -9.25453,-11.09065 -11.3636,-19.13325 -1.28071,-4.88379 -1.54015,-12.36257 -1.8619,-53.67396 l -0.37385,-47.99952 13.3039,0 13.3039,0 0.25793,46.67234 c 0.29418,53.23084 -0.0108,51.00319 7.96336,58.17263 12.48352,11.22375 37.17539,8.01453 43.49598,-5.65322 1.83925,-3.97724 1.89194,-5.2469 2.14294,-51.63462 l 0.25734,-47.55713 13.29806,0 13.298,0 -0.3625,46.67234 c -0.3067,39.48985 -0.5882,47.62309 -1.8288,52.8504 -3.273,13.78994 -9.7186,21.8983 -22.10951,27.81288 -3.97861,1.89913 -9.33969,3.8861 -11.91352,4.41551 -6.54169,1.34557 -23.45813,1.89938 -29.9449,0.98033 z"
             id="path3273" />
        </g>
      </g>
    </g>
  </g>
</svg>
